<svg xmlns="http://www.w3.org/2000/svg" viewBox="0 0 64 64" width="64" height="64">
  <defs>
    <linearGradient id="m" x1=".28" y1=".05" x2=".72" y2="1">
      <stop offset="0%" stop-color="#FFDD7A"/><stop offset="44%" stop-color="#FF9E2C"/><stop offset="100%" stop-color="#EC5A12"/>
    </linearGradient>
  </defs>
  <rect width="64" height="64" rx="16" fill="#FFF3DE"/>
  <path d="M39 17 C47 20 51 28 50 38 C49 48 42 55 34 54 C25 53 20 44 21 34 C22 26 28 20 36 18 C37 17.7 38 17.4 39 17 Z" fill="url(#m)"/>
  <path d="M39 17 C43 19 47 22 50 27 C45 24 41 23 38 24 C38 22 38 19.5 39 17 Z" fill="#CFE08A" opacity=".5"/>
  <ellipse cx="29" cy="30" rx="4" ry="6.4" transform="rotate(-26 29 30)" fill="#fff" opacity=".45"/>
  <path d="M39 17 c1.5-3.6 1-6.6-1.4-9.6" fill="none" stroke="#7C5127" stroke-width="3" stroke-linecap="round"/>
  <path d="M37 10 C40 4 47 2 55 5 C53 11 46 14 39 12.5 C37.6 12 37 10.6 37 10 Z" fill="#3E8A50"/>
</svg>
